<svg width="15" height="14" viewBox="0 0 15 14" fill="none" xmlns="http://www.w3.org/2000/svg">
<path d="M14.25 5.15789H3.75V2.94737C3.75 2.13463 4.42275 1.47368 5.25 1.47368C6.07725 1.47368 6.75 2.13463 6.75 2.94737H8.25C8.25 1.32189 6.9045 0 5.25 0C3.5955 0 2.25 1.32189 2.25 2.94737V5.15789H0.75C0.551088 5.15789 0.360322 5.23553 0.21967 5.37371C0.0790176 5.5119 0 5.69931 0 5.89474V7.36842C0 9.28863 1.2555 10.9222 3 11.5316V14H4.5V11.7895H10.5V14H12V11.5316C13.7445 10.9222 15 9.28863 15 7.36842V5.89474C15 5.69931 14.921 5.5119 14.7803 5.37371C14.6397 5.23553 14.4489 5.15789 14.25 5.15789ZM13.5 7.36842C13.5 8.99389 12.1545 10.3158 10.5 10.3158H4.5C2.8455 10.3158 1.5 8.99389 1.5 7.36842V6.63158H13.5V7.36842Z" fill="#C1C1C1"/>
</svg>
