<svg width="8" height="6" viewBox="0 0 8 6" fill="none" xmlns="http://www.w3.org/2000/svg">
<path d="M6.94328 0.1278C7.01516 0.0544124 7.11359 0.00441053 7.21828 0.000718089C7.33047 -0.00635909 7.44234 0.0393349 7.52125 0.117492C7.64141 0.234727 7.76094 0.352423 7.88 0.470735C7.95062 0.539661 7.99375 0.63351 8 0.731206V0.754745C7.99703 0.870288 7.93766 0.976907 7.85187 1.05353C6.35406 2.52789 4.85687 4.00302 3.35891 5.47707C3.26359 5.57646 3.11484 5.62354 2.97953 5.58846C2.90078 5.57 2.83219 5.52338 2.77641 5.46692C1.89344 4.59735 1.01016 3.72824 0.127344 2.85867C0.0514062 2.7862 0.00453125 2.68635 0 2.58204V2.56727C0.00296875 2.46373 0.0476562 2.36357 0.122656 2.29111C0.245156 2.17033 0.366719 2.04848 0.490938 1.92956C0.598125 1.82786 0.764844 1.79401 0.903594 1.84771C0.985781 1.87725 1.04797 1.93987 1.10781 2.00017C1.76344 2.64589 2.41922 3.29161 3.07516 3.93717C4.36484 2.66774 5.65375 1.39754 6.94328 0.1278Z" fill="#1F74FD"/>
</svg>
