<svg width="14" height="17" viewBox="0 0 14 17" fill="none" xmlns="http://www.w3.org/2000/svg">
<path d="M12.25 1H1.75C1.33579 1 1 1.32235 1 1.72V14.68C1 15.0776 1.33579 15.4 1.75 15.4H12.25C12.6642 15.4 13 15.0776 13 14.68V1.72C13 1.32235 12.6642 1 12.25 1Z" stroke="#C1C1C1" stroke-width="1.3"/>
<path d="M1 4.2C1 4.41217 1.07902 4.61566 1.21967 4.76569C1.36032 4.91571 1.55109 5 1.75 5H12.25C12.4489 5 12.6397 4.91571 12.7803 4.76569C12.921 4.61566 13 4.41217 13 4.2V1.8C13 1.58783 12.921 1.38434 12.7803 1.23431C12.6397 1.08429 12.4489 1 12.25 1H1.75C1.55109 1 1.36032 1.08429 1.21967 1.23431C1.07902 1.38434 1 1.58783 1 1.8V4.2Z" stroke="#C1C1C1" stroke-width="1.3"/>
<path d="M7.0002 13C8.54659 13 9.8002 11.7464 9.8002 10.2C9.8002 8.6536 8.54659 7.39999 7.0002 7.39999C5.4538 7.39999 4.2002 8.6536 4.2002 10.2C4.2002 11.7464 5.4538 13 7.0002 13Z" stroke="#C1C1C1" stroke-width="1.3"/>
</svg>
