<svg width="13" height="15" viewBox="0 0 13 15" fill="none" xmlns="http://www.w3.org/2000/svg">
<path d="M11.1429 0H1.85714C0.835714 0 0 0.675 0 1.5V12.75C0 13.1478 0.195663 13.5294 0.543944 13.8107C0.892226 14.092 1.3646 14.25 1.85714 14.25V15H3.71429V14.25H9.28571V15H11.1429V14.25C12.1736 14.25 13 13.5825 13 12.75V1.5C13 1.10218 12.8043 0.720644 12.4561 0.43934C12.1078 0.158035 11.6354 0 11.1429 0ZM11.1429 12.75H1.85714V1.5H11.1429V12.75ZM4.64286 9.75H2.78571V6H4.64286V9.75Z" fill="#C1C1C1"/>
</svg>
