<svg width="167" height="44" viewBox="0 0 167 44" fill="none" xmlns="http://www.w3.org/2000/svg">
<path d="M39.6032 30.3808C41.6569 26.2477 42.1585 21.5292 41.0187 17.0653C39.8788 12.6013 37.1716 8.68151 33.3789 6.00379C29.5862 3.32606 24.9542 2.06415 20.3074 2.44269C15.6607 2.82124 11.3007 4.81568 8.00379 8.07096C4.70687 11.3262 2.68691 15.6311 2.30352 20.2192C1.92013 24.8072 3.19819 29.3808 5.91017 33.1256C8.62215 36.8703 12.5921 39.5434 17.1132 40.6688C21.6342 41.7942 26.4131 41.2989 30.599 39.2712C30.9714 39.0861 31.3966 39.0319 31.8044 39.1176L38.8142 40.6466C39.1145 40.712 39.4266 40.7017 39.7218 40.6166C40.0169 40.5315 40.2856 40.3744 40.503 40.1597C40.7205 39.945 40.8796 39.6797 40.9658 39.3883C41.052 39.0968 41.0624 38.7887 40.9962 38.4922L39.4485 31.5709C39.3617 31.1683 39.4166 30.7485 39.6041 30.3808H39.6032Z" fill="url(#paint0_linear_184_258)"/>
<path d="M26.8289 19.1055L22.3075 15.3293C22.1705 15.2148 21.9972 15.1521 21.8181 15.1521C21.639 15.1521 21.4656 15.2148 21.3286 15.3293L16.8072 19.1048C16.6802 19.211 16.578 19.3435 16.508 19.493C16.438 19.6425 16.4018 19.8054 16.4019 19.9702V27.1736C16.4019 27.3734 16.4818 27.5651 16.6242 27.7064C16.7665 27.8477 16.9597 27.9272 17.1611 27.9274H26.4751C26.6765 27.9272 26.8696 27.8477 27.012 27.7064C27.1543 27.5651 27.2343 27.3734 27.2343 27.1736V19.9702C27.2344 19.8054 27.1981 19.6425 27.1281 19.493C27.0581 19.3435 26.956 19.211 26.8289 19.1048V19.1055Z" fill="white"/>
<path d="M52.127 24.7947L59.7533 6.22249H63.0255L70.5727 24.7947H67.5644L65.4269 19.3557H57.1672L55.0033 24.7947H52.127ZM58.0644 17.0475H64.5297L61.3103 8.87567L58.0644 17.0475Z" fill="#2E2E2E"/>
<path d="M72.1606 24.7947V11.2901H74.7995V12.5901C75.8023 11.5465 77.0601 11.0247 78.5731 11.0247C79.4879 11.0247 80.2972 11.2282 81.0009 11.635C81.7222 12.0418 82.2939 12.5901 82.7161 13.2799C83.2791 12.5371 83.9388 11.9799 84.6953 11.6084C85.4518 11.2193 86.305 11.0247 87.255 11.0247C88.2578 11.0247 89.1286 11.2458 89.8675 11.688C90.624 12.1302 91.2133 12.7493 91.6356 13.5453C92.0754 14.3412 92.2953 15.261 92.2953 16.3046V24.7947H89.6564V16.7556C89.6564 15.6943 89.3749 14.863 88.812 14.2616C88.2666 13.6425 87.5189 13.333 86.5689 13.333C85.918 13.333 85.3286 13.4834 84.8009 13.784C84.2731 14.0847 83.8157 14.5446 83.4286 15.1637C83.4638 15.3406 83.4902 15.5263 83.5078 15.7209C83.5254 15.9154 83.5342 16.11 83.5342 16.3046V24.7947H80.9217V16.7556C80.9217 15.6943 80.6402 14.863 80.0773 14.2616C79.5319 13.6425 78.7842 13.333 77.8342 13.333C77.2009 13.333 76.6291 13.4745 76.1189 13.7575C75.6087 14.0228 75.1689 14.4297 74.7995 14.978V24.7947H72.1606Z" fill="#2E2E2E"/>
<path d="M101.714 25.0601C100.412 25.0601 99.2249 24.7505 98.1517 24.1314C97.0962 23.5124 96.2605 22.6722 95.6448 21.6109C95.0291 20.5497 94.7212 19.3646 94.7212 18.0557C94.7212 16.7468 95.0291 15.5617 95.6448 14.5004C96.2605 13.4391 97.0962 12.599 98.1517 11.9799C99.2249 11.3431 100.412 11.0247 101.714 11.0247C103.034 11.0247 104.221 11.3431 105.277 11.9799C106.332 12.599 107.168 13.4391 107.784 14.5004C108.399 15.5617 108.707 16.7468 108.707 18.0557C108.707 19.3646 108.399 20.5497 107.784 21.6109C107.168 22.6722 106.332 23.5124 105.277 24.1314C104.221 24.7505 103.034 25.0601 101.714 25.0601ZM101.714 22.7253C102.541 22.7253 103.289 22.5218 103.957 22.115C104.626 21.6905 105.154 21.1245 105.541 20.417C105.928 19.7095 106.121 18.9135 106.121 18.0291C106.121 17.1624 105.919 16.3842 105.514 15.6943C105.127 14.9868 104.599 14.4208 103.931 13.9963C103.28 13.5718 102.541 13.3595 101.714 13.3595C100.887 13.3595 100.14 13.5718 99.4712 13.9963C98.8203 14.4208 98.2925 14.9868 97.8879 15.6943C97.5008 16.3842 97.3073 17.1624 97.3073 18.0291C97.3073 18.9135 97.5008 19.7095 97.8879 20.417C98.2749 21.1245 98.8027 21.6905 99.4712 22.115C100.14 22.5218 100.887 22.7253 101.714 22.7253Z" fill="#2E2E2E"/>
<path d="M117.378 25.007C116.129 25.007 114.985 24.6975 113.947 24.0784C112.909 23.4593 112.091 22.628 111.493 21.5844C110.895 20.5231 110.596 19.338 110.596 18.0291C110.596 16.7202 110.895 15.544 111.493 14.5004C112.109 13.4568 112.936 12.6255 113.973 12.0064C115.011 11.3873 116.164 11.0778 117.43 11.0778C118.169 11.0778 118.882 11.1928 119.568 11.4227C120.254 11.6527 120.887 11.9887 121.468 12.4309V6.22249L124.107 5.71838V24.7947H121.494V23.4947C120.351 24.5029 118.979 25.007 117.378 25.007ZM117.721 22.6987C118.495 22.6987 119.198 22.5572 119.832 22.2742C120.483 21.9912 121.028 21.5844 121.468 21.0538V14.978C121.028 14.4827 120.483 14.0936 119.832 13.8106C119.198 13.5099 118.495 13.3595 117.721 13.3595C116.876 13.3595 116.111 13.5629 115.425 13.9698C114.739 14.3766 114.193 14.9338 113.789 15.6413C113.384 16.3311 113.182 17.1182 113.182 18.0026C113.182 18.887 113.384 19.6829 113.789 20.3905C114.193 21.098 114.739 21.664 115.425 22.0885C116.111 22.4953 116.876 22.6987 117.721 22.6987Z" fill="#2E2E2E"/>
<path d="M131.48 25.0335C130.513 25.0335 129.66 24.8655 128.921 24.5294C128.182 24.1757 127.601 23.6892 127.179 23.0702C126.757 22.4511 126.546 21.7347 126.546 20.9211C126.546 19.6476 127.03 18.6482 127.997 17.923C128.965 17.1801 130.293 16.8087 131.982 16.8087C133.301 16.8087 134.524 17.0651 135.65 17.5781V16.1454C135.65 15.1725 135.368 14.4473 134.805 13.9698C134.26 13.4922 133.451 13.2534 132.378 13.2534C131.762 13.2534 131.12 13.3507 130.451 13.5453C129.783 13.7221 129.035 14.0051 128.208 14.3943L127.232 12.4044C128.252 11.9268 129.202 11.5819 130.082 11.3697C130.961 11.1397 131.85 11.0247 132.747 11.0247C134.489 11.0247 135.835 11.4404 136.785 12.2717C137.752 13.1031 138.236 14.2882 138.236 15.827V24.7947H135.65V23.6273C135.052 24.1049 134.41 24.4587 133.723 24.6886C133.037 24.9186 132.29 25.0335 131.48 25.0335ZM129.079 20.868C129.079 21.5225 129.352 22.0531 129.897 22.4599C130.46 22.8668 131.19 23.0702 132.087 23.0702C132.791 23.0702 133.433 22.964 134.014 22.7518C134.612 22.5395 135.157 22.2123 135.65 21.7701V19.4884C135.14 19.1877 134.603 18.9754 134.04 18.8516C133.495 18.7101 132.879 18.6394 132.193 18.6394C131.225 18.6394 130.46 18.8428 129.897 19.2496C129.352 19.6387 129.079 20.1782 129.079 20.868Z" fill="#2E2E2E"/>
<path d="M143.018 24.9805C142.561 24.9805 142.165 24.8213 141.831 24.5029C141.514 24.1668 141.356 23.7688 141.356 23.309C141.356 22.8491 141.514 22.4599 141.831 22.1416C142.165 21.8055 142.561 21.6375 143.018 21.6375C143.476 21.6375 143.863 21.8055 144.179 22.1416C144.514 22.4599 144.681 22.8491 144.681 23.309C144.681 23.7688 144.514 24.1668 144.179 24.5029C143.863 24.8213 143.476 24.9805 143.018 24.9805Z" fill="#2E2E2E"/>
<path d="M147.874 24.7947V11.2901H150.513V24.7947H147.874ZM149.193 9.11445C148.753 9.11445 148.375 8.95526 148.059 8.63688C147.742 8.30081 147.584 7.91168 147.584 7.46948C147.584 7.0096 147.742 6.62931 148.059 6.32861C148.375 6.01023 148.753 5.85104 149.193 5.85104C149.651 5.85104 150.038 6.01023 150.354 6.32861C150.671 6.62931 150.829 7.0096 150.829 7.46948C150.829 7.91168 150.671 8.30081 150.354 8.63688C150.038 8.95526 149.651 9.11445 149.193 9.11445Z" fill="#2E2E2E"/>
<path d="M160.007 25.0601C158.705 25.0601 157.517 24.7505 156.444 24.1314C155.389 23.5124 154.553 22.6722 153.937 21.6109C153.322 20.5497 153.014 19.3646 153.014 18.0557C153.014 16.7468 153.322 15.5617 153.937 14.5004C154.553 13.4391 155.389 12.599 156.444 11.9799C157.517 11.3431 158.705 11.0247 160.007 11.0247C161.326 11.0247 162.514 11.3431 163.569 11.9799C164.625 12.599 165.46 13.4391 166.076 14.5004C166.692 15.5617 167 16.7468 167 18.0557C167 19.3646 166.692 20.5497 166.076 21.6109C165.46 22.6722 164.625 23.5124 163.569 24.1314C162.514 24.7505 161.326 25.0601 160.007 25.0601ZM160.007 22.7253C160.834 22.7253 161.581 22.5218 162.25 22.115C162.918 21.6905 163.446 21.1245 163.833 20.417C164.22 19.7095 164.414 18.9135 164.414 18.0291C164.414 17.1624 164.211 16.3842 163.807 15.6943C163.42 14.9868 162.892 14.4208 162.223 13.9963C161.572 13.5718 160.834 13.3595 160.007 13.3595C159.18 13.3595 158.432 13.5718 157.764 13.9963C157.113 14.4208 156.585 14.9868 156.18 15.6943C155.793 16.3842 155.6 17.1624 155.6 18.0291C155.6 18.9135 155.793 19.7095 156.18 20.417C156.567 21.1245 157.095 21.6905 157.764 22.115C158.432 22.5218 159.18 22.7253 160.007 22.7253Z" fill="#2E2E2E"/>
<path d="M54.7753 36.2184C54.289 36.2184 53.8201 36.1223 53.3685 35.9302C52.9169 35.7381 52.5174 35.4675 52.17 35.1182L52.7258 34.4721C53.0558 34.7981 53.3916 35.0396 53.7332 35.1968C54.0806 35.354 54.4424 35.4325 54.8188 35.4325C55.114 35.4325 55.3717 35.3918 55.5917 35.3103C55.8175 35.223 55.9911 35.1007 56.1127 34.9436C56.2343 34.7864 56.2951 34.6089 56.2951 34.411C56.2951 34.1374 56.1996 33.9278 56.0085 33.7823C55.8175 33.6368 55.5019 33.5262 55.0619 33.4505L54.0459 33.2846C53.4901 33.1857 53.0732 33.0052 52.7953 32.7433C52.5232 32.4813 52.3871 32.1321 52.3871 31.6955C52.3871 31.3463 52.4798 31.0407 52.665 30.7787C52.8503 30.511 53.1108 30.3043 53.4466 30.1588C53.7882 30.0133 54.1819 29.9405 54.6277 29.9405C55.0677 29.9405 55.499 30.0133 55.9217 30.1588C56.3501 30.2985 56.7351 30.5022 57.0767 30.77L56.573 31.4685C55.9188 30.9679 55.2559 30.7176 54.5843 30.7176C54.318 30.7176 54.0864 30.7554 53.8895 30.8311C53.6927 30.9068 53.5393 31.0145 53.4293 31.1542C53.3193 31.288 53.2643 31.4452 53.2643 31.6257C53.2643 31.876 53.3482 32.068 53.5161 32.2019C53.684 32.33 53.9619 32.4231 54.3498 32.4813L55.3311 32.6472C55.9738 32.752 56.4456 32.9412 56.7467 33.2148C57.0477 33.4884 57.1983 33.8638 57.1983 34.3411C57.1983 34.7137 57.0969 35.0425 56.8943 35.3278C56.6917 35.6072 56.408 35.8254 56.0432 35.9826C55.6785 36.1398 55.2559 36.2184 54.7753 36.2184Z" fill="#2E2E2E"/>
<path d="M58.8073 36.131V31.6868H59.6757V32.1146C60.0057 31.7712 60.4197 31.5995 60.9176 31.5995C61.2187 31.5995 61.485 31.6664 61.7166 31.8003C61.9539 31.9342 62.1421 32.1146 62.281 32.3416C62.4663 32.0972 62.6834 31.9138 62.9324 31.7916C63.1813 31.6635 63.4621 31.5995 63.7747 31.5995C64.1047 31.5995 64.3913 31.6722 64.6345 31.8178C64.8834 31.9633 65.0774 32.167 65.2163 32.4289C65.3611 32.6909 65.4334 32.9936 65.4334 33.337V36.131H64.565V33.4854C64.565 33.1362 64.4724 32.8626 64.2871 32.6647C64.1076 32.461 63.8616 32.3591 63.5489 32.3591C63.3347 32.3591 63.1408 32.4086 62.9671 32.5075C62.7934 32.6065 62.6429 32.7578 62.5155 32.9616C62.5271 33.0198 62.5358 33.0809 62.5416 33.1449C62.5474 33.2089 62.5502 33.273 62.5502 33.337V36.131H61.6905V33.4854C61.6905 33.1362 61.5979 32.8626 61.4126 32.6647C61.2331 32.461 60.9871 32.3591 60.6744 32.3591C60.466 32.3591 60.2778 32.4057 60.11 32.4988C59.9421 32.5861 59.7973 32.72 59.6757 32.9004V36.131H58.8073Z" fill="#2E2E2E"/>
<path d="M68.6981 36.2096C68.3797 36.2096 68.0989 36.1543 67.8558 36.0437C67.6126 35.9273 67.4215 35.7672 67.2826 35.5635C67.1436 35.3598 67.0742 35.124 67.0742 34.8563C67.0742 34.4372 67.2334 34.1083 67.5518 33.8696C67.8702 33.6251 68.3073 33.5029 68.8631 33.5029C69.2974 33.5029 69.6997 33.5873 70.0703 33.7561V33.2846C70.0703 32.9645 69.9776 32.7258 69.7924 32.5686C69.6129 32.4115 69.3466 32.3329 68.9934 32.3329C68.7908 32.3329 68.5795 32.3649 68.3594 32.4289C68.1394 32.4872 67.8934 32.5803 67.6213 32.7083L67.3 32.0535C67.6358 31.8963 67.9484 31.7828 68.2379 31.713C68.5273 31.6373 68.8197 31.5995 69.115 31.5995C69.6882 31.5995 70.1311 31.7363 70.4437 32.0098C70.7621 32.2834 70.9213 32.6734 70.9213 33.1798V36.131H70.0703V35.7469C69.8734 35.904 69.6621 36.0205 69.4363 36.0961C69.2105 36.1718 68.9645 36.2096 68.6981 36.2096ZM67.9079 34.8388C67.9079 35.0542 67.9976 35.2288 68.1771 35.3627C68.3623 35.4907 68.6026 35.5548 68.8979 35.5548C69.1295 35.5548 69.3408 35.5228 69.5318 35.4587C69.7287 35.3889 69.9082 35.2812 70.0703 35.1357V34.3848C69.9024 34.2858 69.7258 34.216 69.5405 34.1752C69.361 34.1287 69.1584 34.1054 68.9326 34.1054C68.6142 34.1054 68.3623 34.1723 68.1771 34.3062C67.9976 34.4342 67.9079 34.6118 67.9079 34.8388Z" fill="#2E2E2E"/>
<path d="M72.7904 36.131V31.6868H73.6589V32.2543C73.7978 32.0448 73.9686 31.8818 74.1712 31.7654C74.3797 31.6431 74.6141 31.582 74.8747 31.582C75.0541 31.5878 75.2018 31.614 75.3176 31.6606V32.4464C75.2365 32.4115 75.1526 32.3882 75.0657 32.3766C74.9789 32.3591 74.892 32.3504 74.8052 32.3504C74.5504 32.3504 74.3247 32.4202 74.1278 32.5599C73.931 32.6938 73.7746 32.8917 73.6589 33.1537V36.131H72.7904Z" fill="#2E2E2E"/>
<path d="M78.7747 36.2096C78.3463 36.2096 78.0192 36.1107 77.7934 35.9128C77.5676 35.709 77.4547 35.4151 77.4547 35.0309V32.4202H76.5168V31.6868H77.4547V30.5517L78.3145 30.3421V31.6868H79.6171V32.4202H78.3145V34.8301C78.3145 35.0571 78.3637 35.2201 78.4621 35.319C78.5663 35.4122 78.7342 35.4587 78.9658 35.4587C79.0874 35.4587 79.1945 35.45 79.2871 35.4325C79.3855 35.4151 79.4897 35.3889 79.5997 35.354V36.0874C79.484 36.1281 79.3479 36.1572 79.1916 36.1747C79.0411 36.198 78.9021 36.2096 78.7747 36.2096Z" fill="#2E2E2E"/>
<path d="M83.8087 36.131V31.6868H84.6771V32.2543C84.816 32.0448 84.9868 31.8818 85.1895 31.7654C85.3979 31.6431 85.6324 31.582 85.8929 31.582C86.0724 31.5878 86.22 31.614 86.3358 31.6606V32.4464C86.2547 32.4115 86.1708 32.3882 86.084 32.3766C85.9971 32.3591 85.9103 32.3504 85.8234 32.3504C85.5687 32.3504 85.3429 32.4202 85.146 32.5599C84.9492 32.6938 84.7929 32.8917 84.6771 33.1537V36.131H83.8087Z" fill="#2E2E2E"/>
<path d="M89.7643 36.2096C89.3301 36.2096 88.9364 36.1078 88.5833 35.904C88.2359 35.7003 87.958 35.4238 87.7496 35.0746C87.5469 34.7253 87.4456 34.3353 87.4456 33.9045C87.4456 33.4796 87.544 33.0954 87.7409 32.752C87.9377 32.4028 88.2041 32.1263 88.5398 31.9225C88.8756 31.713 89.2491 31.6082 89.6601 31.6082C90.0712 31.6082 90.4359 31.713 90.7544 31.9225C91.0728 32.1263 91.3246 32.4057 91.5099 32.7607C91.7009 33.11 91.7965 33.5058 91.7965 33.9482V34.1927H88.3141C88.3604 34.4372 88.4501 34.6554 88.5833 34.8475C88.7222 35.0396 88.8959 35.191 89.1043 35.3016C89.3185 35.4122 89.5501 35.4675 89.7991 35.4675C90.0133 35.4675 90.2188 35.4354 90.4157 35.3714C90.6183 35.3016 90.7862 35.2026 90.9194 35.0746L91.4752 35.6246C91.2146 35.8225 90.9454 35.971 90.6675 36.0699C90.3954 36.1631 90.0943 36.2096 89.7643 36.2096ZM88.3227 33.5378H90.9367C90.902 33.305 90.8209 33.1013 90.6936 32.9266C90.572 32.7462 90.4186 32.6065 90.2333 32.5075C90.0538 32.4028 89.857 32.3504 89.6428 32.3504C89.4228 32.3504 89.2201 32.3998 89.0349 32.4988C88.8496 32.5978 88.6933 32.7375 88.5659 32.9179C88.4443 33.0925 88.3633 33.2992 88.3227 33.5378Z" fill="#2E2E2E"/>
<path d="M94.8308 36.2096C94.5124 36.2096 94.2316 36.1543 93.9884 36.0437C93.7453 35.9273 93.5542 35.7672 93.4153 35.5635C93.2763 35.3598 93.2069 35.124 93.2069 34.8563C93.2069 34.4372 93.3661 34.1083 93.6845 33.8696C94.0029 33.6251 94.44 33.5029 94.9958 33.5029C95.43 33.5029 95.8324 33.5873 96.203 33.7561V33.2846C96.203 32.9645 96.1103 32.7258 95.9251 32.5686C95.7456 32.4115 95.4793 32.3329 95.1261 32.3329C94.9235 32.3329 94.7121 32.3649 94.4921 32.4289C94.2721 32.4872 94.0261 32.5803 93.754 32.7083L93.4327 32.0535C93.7684 31.8963 94.0811 31.7828 94.3706 31.713C94.66 31.6373 94.9524 31.5995 95.2477 31.5995C95.8208 31.5995 96.2637 31.7363 96.5764 32.0098C96.8948 32.2834 97.054 32.6734 97.054 33.1798V36.131H96.203V35.7469C96.0061 35.904 95.7948 36.0205 95.569 36.0961C95.3432 36.1718 95.0971 36.2096 94.8308 36.2096ZM94.0406 34.8388C94.0406 35.0542 94.1303 35.2288 94.3098 35.3627C94.495 35.4907 94.7353 35.5548 95.0306 35.5548C95.2621 35.5548 95.4735 35.5228 95.6645 35.4587C95.8614 35.3889 96.0408 35.2812 96.203 35.1357V34.3848C96.0351 34.2858 95.8585 34.216 95.6732 34.1752C95.4937 34.1287 95.2911 34.1054 95.0653 34.1054C94.7469 34.1054 94.495 34.1723 94.3098 34.3062C94.1303 34.4342 94.0406 34.6118 94.0406 34.8388Z" fill="#2E2E2E"/>
<path d="M98.9231 36.131V30.0191L99.7915 29.8532V36.131H98.9231Z" fill="#2E2E2E"/>
<path d="M106.485 36.2096C106.051 36.2096 105.657 36.1078 105.304 35.904C104.957 35.7003 104.679 35.4238 104.47 35.0746C104.268 34.7253 104.166 34.3353 104.166 33.9045C104.166 33.4796 104.265 33.0954 104.462 32.752C104.658 32.4028 104.925 32.1263 105.261 31.9225C105.596 31.713 105.97 31.6082 106.381 31.6082C106.792 31.6082 107.157 31.713 107.475 31.9225C107.793 32.1263 108.045 32.4057 108.231 32.7607C108.422 33.11 108.517 33.5058 108.517 33.9482V34.1927H105.035C105.081 34.4372 105.171 34.6554 105.304 34.8475C105.443 35.0396 105.617 35.191 105.825 35.3016C106.039 35.4122 106.271 35.4675 106.52 35.4675C106.734 35.4675 106.94 35.4354 107.136 35.3714C107.339 35.3016 107.507 35.2026 107.64 35.0746L108.196 35.6246C107.935 35.8225 107.666 35.971 107.388 36.0699C107.116 36.1631 106.815 36.2096 106.485 36.2096ZM105.043 33.5378H107.657C107.623 33.305 107.542 33.1013 107.414 32.9266C107.293 32.7462 107.139 32.6065 106.954 32.5075C106.775 32.4028 106.578 32.3504 106.363 32.3504C106.143 32.3504 105.941 32.3998 105.756 32.4988C105.57 32.5978 105.414 32.7375 105.287 32.9179C105.165 33.0925 105.084 33.2992 105.043 33.5378Z" fill="#2E2E2E"/>
<path d="M111.775 36.2184C111.393 36.2184 111.034 36.1631 110.698 36.0525C110.368 35.936 110.081 35.7731 109.838 35.5635L110.316 34.9872C110.542 35.1677 110.773 35.3074 111.011 35.4063C111.254 35.4995 111.5 35.546 111.749 35.546C112.061 35.546 112.316 35.4849 112.513 35.3627C112.71 35.2404 112.808 35.0804 112.808 34.8825C112.808 34.7195 112.75 34.5914 112.635 34.4983C112.519 34.4051 112.339 34.3411 112.096 34.3062L111.297 34.1927C110.857 34.1287 110.527 33.9919 110.307 33.7823C110.087 33.5728 109.977 33.2934 109.977 32.9441C109.977 32.6763 110.05 32.4435 110.194 32.2456C110.339 32.0419 110.542 31.8847 110.802 31.7741C111.063 31.6577 111.367 31.5995 111.714 31.5995C112.033 31.5995 112.339 31.646 112.635 31.7392C112.93 31.8323 113.214 31.9778 113.486 32.1757L113.043 32.752C112.8 32.589 112.562 32.4697 112.331 32.394C112.105 32.3183 111.876 32.2805 111.645 32.2805C111.378 32.2805 111.164 32.3387 111.002 32.4551C110.84 32.5657 110.759 32.7113 110.759 32.8917C110.759 33.0547 110.814 33.1828 110.924 33.2759C111.04 33.3632 111.228 33.4243 111.488 33.4592L112.287 33.5728C112.727 33.6368 113.06 33.7736 113.286 33.9831C113.512 34.1869 113.625 34.4634 113.625 34.8126C113.625 35.0804 113.544 35.3219 113.381 35.5373C113.219 35.7469 112.999 35.9128 112.721 36.035C112.444 36.1572 112.128 36.2184 111.775 36.2184Z" fill="#2E2E2E"/>
<path d="M116.969 36.2096C116.54 36.2096 116.213 36.1107 115.987 35.9128C115.762 35.709 115.649 35.4151 115.649 35.0309V32.4202H114.711V31.6868H115.649V30.5517L116.509 30.3421V31.6868H117.811V32.4202H116.509V34.8301C116.509 35.0571 116.558 35.2201 116.656 35.319C116.76 35.4122 116.928 35.4587 117.16 35.4587C117.281 35.4587 117.389 35.45 117.481 35.4325C117.58 35.4151 117.684 35.3889 117.794 35.354V36.0874C117.678 36.1281 117.542 36.1572 117.386 36.1747C117.235 36.198 117.096 36.2096 116.969 36.2096Z" fill="#2E2E2E"/>
<path d="M120.718 36.2096C120.399 36.2096 120.118 36.1543 119.875 36.0437C119.632 35.9273 119.441 35.7672 119.302 35.5635C119.163 35.3598 119.094 35.124 119.094 34.8563C119.094 34.4372 119.253 34.1083 119.571 33.8696C119.89 33.6251 120.327 33.5029 120.883 33.5029C121.317 33.5029 121.719 33.5873 122.09 33.7561V33.2846C122.09 32.9645 121.997 32.7258 121.812 32.5686C121.632 32.4115 121.366 32.3329 121.013 32.3329C120.81 32.3329 120.599 32.3649 120.379 32.4289C120.159 32.4872 119.913 32.5803 119.641 32.7083L119.319 32.0535C119.655 31.8963 119.968 31.7828 120.257 31.713C120.547 31.6373 120.839 31.5995 121.134 31.5995C121.708 31.5995 122.15 31.7363 122.463 32.0098C122.782 32.2834 122.941 32.6734 122.941 33.1798V36.131H122.09V35.7469C121.893 35.904 121.682 36.0205 121.456 36.0961C121.23 36.1718 120.984 36.2096 120.718 36.2096ZM119.927 34.8388C119.927 35.0542 120.017 35.2288 120.197 35.3627C120.382 35.4907 120.622 35.5548 120.917 35.5548C121.149 35.5548 121.36 35.5228 121.551 35.4587C121.748 35.3889 121.928 35.2812 122.09 35.1357V34.3848C121.922 34.2858 121.745 34.216 121.56 34.1752C121.38 34.1287 121.178 34.1054 120.952 34.1054C120.634 34.1054 120.382 34.1723 120.197 34.3062C120.017 34.4342 119.927 34.6118 119.927 34.8388Z" fill="#2E2E2E"/>
<path d="M126.576 36.2096C126.147 36.2096 125.82 36.1107 125.594 35.9128C125.369 35.709 125.256 35.4151 125.256 35.0309V32.4202H124.318V31.6868H125.256V30.5517L126.116 30.3421V31.6868H127.418V32.4202H126.116V34.8301C126.116 35.0571 126.165 35.2201 126.263 35.319C126.367 35.4122 126.535 35.4587 126.767 35.4587C126.888 35.4587 126.996 35.45 127.088 35.4325C127.187 35.4151 127.291 35.3889 127.401 35.354V36.0874C127.285 36.1281 127.149 36.1572 126.993 36.1747C126.842 36.198 126.703 36.2096 126.576 36.2096Z" fill="#2E2E2E"/>
<path d="M130.978 36.2096C130.543 36.2096 130.15 36.1078 129.796 35.904C129.449 35.7003 129.171 35.4238 128.963 35.0746C128.76 34.7253 128.659 34.3353 128.659 33.9045C128.659 33.4796 128.757 33.0954 128.954 32.752C129.151 32.4028 129.417 32.1263 129.753 31.9225C130.089 31.713 130.462 31.6082 130.873 31.6082C131.284 31.6082 131.649 31.713 131.968 31.9225C132.286 32.1263 132.538 32.4057 132.723 32.7607C132.914 33.11 133.01 33.5058 133.01 33.9482V34.1927H129.527C129.574 34.4372 129.663 34.6554 129.796 34.8475C129.935 35.0396 130.109 35.191 130.318 35.3016C130.532 35.4122 130.763 35.4675 131.012 35.4675C131.227 35.4675 131.432 35.4354 131.629 35.3714C131.832 35.3016 131.999 35.2026 132.133 35.0746L132.688 35.6246C132.428 35.8225 132.159 35.971 131.881 36.0699C131.609 36.1631 131.308 36.2096 130.978 36.2096ZM129.536 33.5378H132.15C132.115 33.305 132.034 33.1013 131.907 32.9266C131.785 32.7462 131.632 32.6065 131.447 32.5075C131.267 32.4028 131.07 32.3504 130.856 32.3504C130.636 32.3504 130.433 32.3998 130.248 32.4988C130.063 32.5978 129.906 32.7375 129.779 32.9179C129.658 33.0925 129.576 33.2992 129.536 33.5378Z" fill="#2E2E2E"/>
<path d="M138.908 36.2184C138.526 36.2184 138.167 36.1631 137.831 36.0525C137.501 35.936 137.215 35.7731 136.972 35.5635L137.449 34.9872C137.675 35.1677 137.907 35.3074 138.144 35.4063C138.387 35.4995 138.633 35.546 138.882 35.546C139.195 35.546 139.45 35.4849 139.646 35.3627C139.843 35.2404 139.942 35.0804 139.942 34.8825C139.942 34.7195 139.884 34.5914 139.768 34.4983C139.652 34.4051 139.473 34.3411 139.23 34.3062L138.431 34.1927C137.991 34.1287 137.661 33.9919 137.441 33.7823C137.221 33.5728 137.111 33.2934 137.111 32.9441C137.111 32.6763 137.183 32.4435 137.328 32.2456C137.473 32.0419 137.675 31.8847 137.936 31.7741C138.196 31.6577 138.5 31.5995 138.848 31.5995C139.166 31.5995 139.473 31.646 139.768 31.7392C140.063 31.8323 140.347 31.9778 140.619 32.1757L140.176 32.752C139.933 32.589 139.696 32.4697 139.464 32.394C139.238 32.3183 139.01 32.2805 138.778 32.2805C138.512 32.2805 138.298 32.3387 138.135 32.4551C137.973 32.5657 137.892 32.7113 137.892 32.8917C137.892 33.0547 137.947 33.1828 138.057 33.2759C138.173 33.3632 138.361 33.4243 138.622 33.4592L139.421 33.5728C139.861 33.6368 140.194 33.7736 140.419 33.9831C140.645 34.1869 140.758 34.4634 140.758 34.8126C140.758 35.0804 140.677 35.3219 140.515 35.5373C140.353 35.7469 140.133 35.9128 139.855 36.035C139.577 36.1572 139.261 36.2184 138.908 36.2184Z" fill="#2E2E2E"/>
<path d="M144.455 36.2096C144.021 36.2096 143.627 36.1078 143.274 35.904C142.927 35.7003 142.649 35.4238 142.44 35.0746C142.238 34.7253 142.137 34.3353 142.137 33.9045C142.137 33.4796 142.235 33.0954 142.432 32.752C142.629 32.4028 142.895 32.1263 143.231 31.9225C143.567 31.713 143.94 31.6082 144.351 31.6082C144.762 31.6082 145.127 31.713 145.445 31.9225C145.764 32.1263 146.016 32.4057 146.201 32.7607C146.392 33.11 146.487 33.5058 146.487 33.9482V34.1927H143.005C143.051 34.4372 143.141 34.6554 143.274 34.8475C143.413 35.0396 143.587 35.191 143.795 35.3016C144.009 35.4122 144.241 35.4675 144.49 35.4675C144.704 35.4675 144.91 35.4354 145.107 35.3714C145.309 35.3016 145.477 35.2026 145.61 35.0746L146.166 35.6246C145.906 35.8225 145.636 35.971 145.358 36.0699C145.086 36.1631 144.785 36.2096 144.455 36.2096ZM143.014 33.5378H145.628C145.593 33.305 145.512 33.1013 145.384 32.9266C145.263 32.7462 145.109 32.6065 144.924 32.5075C144.745 32.4028 144.548 32.3504 144.334 32.3504C144.114 32.3504 143.911 32.3998 143.726 32.4988C143.54 32.5978 143.384 32.7375 143.257 32.9179C143.135 33.0925 143.054 33.2992 143.014 33.5378Z" fill="#2E2E2E"/>
<path d="M149.522 36.2096C149.203 36.2096 148.922 36.1543 148.679 36.0437C148.436 35.9273 148.245 35.7672 148.106 35.5635C147.967 35.3598 147.898 35.124 147.898 34.8563C147.898 34.4372 148.057 34.1083 148.375 33.8696C148.694 33.6251 149.131 33.5029 149.687 33.5029C150.121 33.5029 150.523 33.5873 150.894 33.7561V33.2846C150.894 32.9645 150.801 32.7258 150.616 32.5686C150.436 32.4115 150.17 32.3329 149.817 32.3329C149.614 32.3329 149.403 32.3649 149.183 32.4289C148.963 32.4872 148.717 32.5803 148.445 32.7083L148.124 32.0535C148.459 31.8963 148.772 31.7828 149.061 31.713C149.351 31.6373 149.643 31.5995 149.939 31.5995C150.512 31.5995 150.955 31.7363 151.267 32.0098C151.586 32.2834 151.745 32.6734 151.745 33.1798V36.131H150.894V35.7469C150.697 35.904 150.486 36.0205 150.26 36.0961C150.034 36.1718 149.788 36.2096 149.522 36.2096ZM148.731 34.8388C148.731 35.0542 148.821 35.2288 149.001 35.3627C149.186 35.4907 149.426 35.5548 149.721 35.5548C149.953 35.5548 150.164 35.5228 150.355 35.4587C150.552 35.3889 150.732 35.2812 150.894 35.1357V34.3848C150.726 34.2858 150.549 34.216 150.364 34.1752C150.185 34.1287 149.982 34.1054 149.756 34.1054C149.438 34.1054 149.186 34.1723 149.001 34.3062C148.821 34.4342 148.731 34.6118 148.731 34.8388Z" fill="#2E2E2E"/>
<path d="M153.614 36.131V31.6868H154.482V32.2543C154.621 32.0448 154.792 31.8818 154.995 31.7654C155.203 31.6431 155.438 31.582 155.698 31.582C155.878 31.5878 156.025 31.614 156.141 31.6606V32.4464C156.06 32.4115 155.976 32.3882 155.889 32.3766C155.802 32.3591 155.716 32.3504 155.629 32.3504C155.374 32.3504 155.148 32.4202 154.951 32.5599C154.755 32.6938 154.598 32.8917 154.482 33.1537V36.131H153.614Z" fill="#2E2E2E"/>
<path d="M159.526 36.2096C159.104 36.2096 158.719 36.1078 158.371 35.904C158.024 35.7003 157.749 35.4238 157.546 35.0746C157.349 34.7253 157.251 34.3353 157.251 33.9045C157.251 33.4738 157.352 33.0867 157.555 32.7433C157.758 32.394 158.03 32.1175 158.371 31.9138C158.719 31.7042 159.104 31.5995 159.526 31.5995C159.862 31.5995 160.183 31.6635 160.49 31.7916C160.803 31.9196 161.072 32.1001 161.298 32.3329L160.759 32.9354C160.592 32.7491 160.403 32.6094 160.195 32.5163C159.987 32.4231 159.769 32.3766 159.544 32.3766C159.277 32.3766 159.034 32.4435 158.814 32.5774C158.6 32.7113 158.429 32.8946 158.302 33.1275C158.174 33.3603 158.111 33.6193 158.111 33.9045C158.111 34.1898 158.174 34.4488 158.302 34.6816C158.429 34.9145 158.603 35.1007 158.823 35.2404C159.043 35.3743 159.289 35.4413 159.561 35.4413C159.787 35.4413 159.998 35.3976 160.195 35.3103C160.392 35.2172 160.577 35.0833 160.751 34.9087L161.28 35.4675C161.049 35.7061 160.78 35.8895 160.473 36.0175C160.172 36.1456 159.856 36.2096 159.526 36.2096Z" fill="#2E2E2E"/>
<path d="M162.848 36.131V30.0191L163.716 29.827V32.1408C164.058 31.7799 164.501 31.5995 165.045 31.5995C165.387 31.5995 165.685 31.6722 165.939 31.8178C166.2 31.9633 166.403 32.167 166.547 32.4289C166.698 32.6909 166.773 32.9936 166.773 33.337V36.131H165.905V33.4854C165.905 33.1362 165.806 32.8626 165.609 32.6647C165.413 32.461 165.143 32.3591 164.802 32.3591C164.57 32.3591 164.362 32.4086 164.177 32.5075C163.991 32.6065 163.838 32.7491 163.716 32.9354V36.131H162.848Z" fill="#2E2E2E"/>
<defs>
<linearGradient id="paint0_linear_184_258" x1="34.575" y1="2.51682" x2="11.839" y2="41.3933" gradientUnits="userSpaceOnUse">
<stop stop-color="#2485FD"/>
<stop offset="1" stop-color="#1859FE"/>
</linearGradient>
</defs>
</svg>
