<svg width="15" height="12" viewBox="0 0 15 12" fill="none" xmlns="http://www.w3.org/2000/svg">
<path d="M4.68213 0.0250502C5.30822 -0.0669223 5.95648 0.157474 6.42117 0.560705C7.25832 1.28712 7.57668 2.5296 7.15234 3.53832C6.94838 4.02799 6.54798 4.45378 6.02831 4.64284C5.43547 4.86511 4.74154 4.76079 4.21832 4.4227C3.13508 3.72652 2.66773 2.23835 3.23973 1.10062C3.50533 0.549209 4.04495 0.108081 4.68213 0.0250502ZM4.80805 1.29734C4.58059 1.37568 4.4489 1.59455 4.37529 1.80361C4.20325 2.32436 4.42584 2.91239 4.83909 3.27049C5.02266 3.42633 5.28294 3.54641 5.52903 3.4638C5.75517 3.3846 5.88864 3.16787 5.96135 2.95923C6.13029 2.44742 5.91834 1.86876 5.51884 1.50981C5.3326 1.34418 5.06434 1.2126 4.80805 1.29734Z" fill="#C1C1C1"/>
<path d="M9.86998 0.0293082C10.481 -0.0801222 11.1408 0.122132 11.5753 0.548357C11.9265 0.8907 12.1172 1.36163 12.1677 1.83512C12.2409 2.53386 12.0493 3.25899 11.6276 3.83382C11.3368 4.22981 10.9164 4.54746 10.4269 4.67988C9.93339 4.81529 9.37869 4.78548 8.92774 4.53809C8.38679 4.25196 8.03251 3.70821 7.90791 3.13636C7.74474 2.40441 7.92786 1.61754 8.36639 1.00268C8.71535 0.513442 9.25542 0.135332 9.86998 0.0293082ZM10.0411 1.29734C9.65227 1.40932 9.38889 1.75592 9.26385 2.11189C9.14634 2.45508 9.14546 2.85236 9.32637 3.17596C9.44032 3.38588 9.69262 3.52256 9.94004 3.47913C10.1972 3.43613 10.4056 3.25857 10.555 3.06185C10.7887 2.74505 10.9098 2.34267 10.8481 1.95562C10.8113 1.74017 10.716 1.52216 10.5338 1.38335C10.3972 1.27775 10.2074 1.25135 10.0411 1.29734Z" fill="#C1C1C1"/>
<path d="M1.62129 3.94666C2.12234 3.85511 2.64778 3.98157 3.07345 4.24174C3.74743 4.65348 4.21611 5.35094 4.358 6.1029C4.47195 6.70626 4.35401 7.35901 3.98598 7.86571C3.71949 8.23488 3.30624 8.50484 2.84731 8.59681C2.24827 8.71816 1.60178 8.56317 1.11758 8.2072C0.555787 7.79844 0.192637 7.17038 0.0569545 6.5121C-0.0632086 5.93088 -0.00246193 5.29346 0.327876 4.78208C0.608552 4.34223 1.09719 4.04161 1.62129 3.94666ZM1.79777 5.21426C1.59114 5.26365 1.45457 5.44419 1.3885 5.62899C1.20094 6.11568 1.39959 6.67135 1.7654 7.03115C1.96582 7.22701 2.24073 7.39776 2.5387 7.36157C2.80075 7.32665 2.9626 7.08778 3.02733 6.86083C3.18785 6.33752 2.93511 5.76226 2.50811 5.42588C2.31256 5.27345 2.05406 5.15422 1.79777 5.21426Z" fill="#C1C1C1"/>
<path d="M12.8705 4.09058C13.3729 4.04374 13.8935 4.19831 14.2726 4.51936C14.7049 4.87788 14.947 5.41652 14.9918 5.95728C15.0556 6.73266 14.7443 7.52167 14.1874 8.08244C13.8376 8.43501 13.3764 8.69559 12.8718 8.77224C12.35 8.85144 11.7828 8.74243 11.37 8.41542C10.9812 8.11395 10.7435 7.66175 10.653 7.19551C10.4934 6.38606 10.7355 5.50891 11.3071 4.89193C11.7083 4.46145 12.2644 4.1438 12.8705 4.09058ZM12.8359 5.38841C12.3828 5.53148 12.0875 5.95728 11.9726 6.38436C11.8986 6.66538 11.9105 6.97835 12.0604 7.2351C12.1442 7.37988 12.2936 7.49441 12.4679 7.51528C12.7131 7.54679 12.9512 7.43438 13.1335 7.28492C13.5321 6.95195 13.7378 6.41203 13.6394 5.91129C13.6021 5.73246 13.5152 5.55149 13.3543 5.44632C13.2044 5.34626 13.0066 5.33945 12.8359 5.38841Z" fill="#C1C1C1"/>
<path d="M7.06012 4.81401C7.70838 4.71863 8.39521 4.8898 8.90823 5.28409C9.42658 5.67242 9.74938 6.26173 9.87929 6.8736C9.93915 7.17379 10.0491 7.46759 10.2318 7.71966C10.5258 8.13908 10.9798 8.41883 11.304 8.81312C11.6072 9.17377 11.7859 9.62469 11.8356 10.0841C11.891 10.6245 11.6702 11.1942 11.2202 11.5327C10.669 11.9457 9.91698 12.0845 9.23769 11.9508C7.9119 11.6187 6.52758 11.7988 5.19471 11.9926C4.55354 12.0287 3.87158 11.8265 3.42684 11.3666C3.1169 11.049 2.96304 10.607 2.98876 10.1748C3.01802 9.68728 3.19893 9.2057 3.51685 8.82333C3.84098 8.42564 4.29814 8.14631 4.59522 7.72648C4.78455 7.46759 4.89629 7.16442 4.95881 6.85572C5.08873 6.25193 5.41153 5.6737 5.92145 5.28963C6.24913 5.03926 6.64553 4.8732 7.06012 4.81401ZM7.11554 6.10801C6.65484 6.21106 6.36751 6.63728 6.2744 7.0584C6.18882 7.45907 6.07221 7.85932 5.85627 8.21529C5.62836 8.61767 5.28294 8.94 4.93398 9.24573C4.65286 9.49567 4.36465 9.79245 4.32518 10.1761C4.29681 10.3626 4.40988 10.5512 4.58812 10.627C4.84353 10.7416 5.1446 10.7505 5.41463 10.679C6.13561 10.5035 6.88674 10.4593 7.62812 10.501C8.2684 10.5274 8.90114 10.6317 9.5392 10.6836C9.76356 10.6986 9.99635 10.7156 10.215 10.6517C10.3475 10.6138 10.4615 10.5116 10.4881 10.3784C10.5533 10.0824 10.4065 9.78862 10.2154 9.56423C9.9529 9.26319 9.6199 9.02772 9.35519 8.72881C8.97608 8.31919 8.72732 7.80823 8.60982 7.27385C8.54907 6.99368 8.4768 6.70286 8.28613 6.4742C8.02098 6.13654 7.53234 6.02115 7.11554 6.10801Z" fill="#C1C1C1"/>
</svg>
