<svg width="14" height="12" viewBox="0 0 14 12" fill="none" xmlns="http://www.w3.org/2000/svg">
<path d="M7 9.66667C7.875 9.66667 8.61887 9.37511 9.2316 8.792C9.84387 8.20844 10.15 7.5 10.15 6.66667C10.15 5.83333 9.84387 5.12489 9.2316 4.54133C8.61887 3.95822 7.875 3.66667 7 3.66667C6.125 3.66667 5.38113 3.95822 4.7684 4.54133C4.15613 5.12489 3.85 5.83333 3.85 6.66667C3.85 7.5 4.15613 8.20844 4.7684 8.792C5.38113 9.37511 6.125 9.66667 7 9.66667ZM7 8.33333C6.51 8.33333 6.09583 8.17222 5.7575 7.85C5.41917 7.52778 5.25 7.13333 5.25 6.66667C5.25 6.2 5.41917 5.80556 5.7575 5.48333C6.09583 5.16111 6.51 5 7 5C7.49 5 7.90417 5.16111 8.2425 5.48333C8.58083 5.80556 8.75 6.2 8.75 6.66667C8.75 7.13333 8.58083 7.52778 8.2425 7.85C7.90417 8.17222 7.49 8.33333 7 8.33333ZM1.4 12C1.015 12 0.685533 11.8696 0.4116 11.6087C0.1372 11.3473 0 11.0333 0 10.6667V2.66667C0 2.3 0.1372 1.98622 0.4116 1.72533C0.685533 1.464 1.015 1.33333 1.4 1.33333H3.605L4.9 0H9.1L10.395 1.33333H12.6C12.985 1.33333 13.3147 1.464 13.5891 1.72533C13.863 1.98622 14 2.3 14 2.66667V10.6667C14 11.0333 13.863 11.3473 13.5891 11.6087C13.3147 11.8696 12.985 12 12.6 12H1.4ZM12.6 10.6667V2.66667H9.765L8.4875 1.33333H5.5125L4.235 2.66667H1.4V10.6667H12.6Z" fill="white"/>
</svg>
