<svg width="13" height="14" viewBox="0 0 13 14" fill="none" xmlns="http://www.w3.org/2000/svg">
<path d="M7.52632 0V5.6H13C13 2.506 10.5505 0 7.52632 0ZM8.89474 4.2V1.638C10.0579 2.058 10.9816 3.003 11.3989 4.2H8.89474ZM3.03789 6.3L2.38789 4.9H0V6.3H1.51895C1.51895 6.3 2.81211 9.149 2.96947 9.394C2.21684 9.807 1.71053 10.619 1.71053 11.55C1.71053 12.901 2.78474 14 4.10526 14C5.30947 14 6.30842 13.09 6.47263 11.9H7.89579C8.06 13.09 9.05895 14 10.2632 14C11.5837 14 12.6579 12.901 12.6579 11.55C12.6579 10.822 12.3432 10.171 11.8505 9.723C12.5959 8.74496 13.0005 7.54018 13 6.3H3.03789ZM4.10526 12.6C3.53737 12.6 3.07895 12.131 3.07895 11.55C3.07895 10.969 3.53737 10.5 4.10526 10.5C4.67316 10.5 5.13158 10.969 5.13158 11.55C5.13158 12.131 4.67316 12.6 4.10526 12.6ZM10.2632 12.6C9.69526 12.6 9.23684 12.131 9.23684 11.55C9.23684 10.969 9.69526 10.5 10.2632 10.5C10.8311 10.5 11.2895 10.969 11.2895 11.55C11.2895 12.131 10.8311 12.6 10.2632 12.6ZM10.7695 8.862L10.5711 9.121C10.0698 9.05532 9.56115 9.15329 9.11759 9.40093C8.67403 9.64857 8.31826 10.0332 8.10105 10.5H6.26737C5.92526 9.772 5.24105 9.24 4.43368 9.121L4.13263 8.652C4.06421 8.533 3.9 8.169 3.67421 7.7H11.3989C11.2553 8.113 11.0432 8.505 10.7695 8.862Z" fill="#C1C1C1"/>
</svg>
