<svg width="17" height="16" viewBox="0 0 17 16" fill="none" xmlns="http://www.w3.org/2000/svg">
<path d="M12.665 1.22337e-07C12.8954 -0.000117126 13.1177 0.0840479 13.2893 0.23635C13.461 0.388652 13.5698 0.598366 13.5949 0.825263L13.6 0.926316V3.36842H14.45C15.1004 3.36839 15.7263 3.61459 16.1995 4.05666C16.6728 4.49873 16.9576 5.10325 16.9958 5.74653L17 5.89474V11.7895C17.0001 12.2144 16.8382 12.6236 16.5465 12.9352C16.2549 13.2468 15.8552 13.4376 15.4275 13.4695L15.3 13.4737H13.6V15.0737C13.6001 15.3019 13.5152 15.5222 13.3614 15.6922C13.2077 15.8622 12.996 15.97 12.767 15.9949L12.665 16H4.335C4.1046 16.0001 3.88227 15.916 3.71066 15.7636C3.53904 15.6113 3.43023 15.4016 3.4051 15.1747L3.4 15.0737V13.4737H1.7C1.27111 13.4738 0.858018 13.3133 0.543534 13.0244C0.22905 12.7355 0.0364168 12.3395 0.0042501 11.9158L3.96138e-09 11.7895V5.89474C-3.62285e-05 5.25035 0.248476 4.6303 0.694691 4.16146C1.14091 3.69263 1.75109 3.41044 2.4004 3.37263L2.55 3.36842H3.4V0.926316C3.39988 0.698057 3.48484 0.477791 3.63857 0.307772C3.7923 0.137753 4.00398 0.0299538 4.233 0.00505279L4.335 1.22337e-07H12.665ZM11.9 10.9474H5.1V14.3158H11.9V10.9474ZM14.45 5.05263H2.55C2.34181 5.05266 2.14086 5.12838 1.98528 5.26544C1.8297 5.4025 1.73031 5.59137 1.70595 5.79621L1.7 5.89474V11.7895H3.4V10.1895C3.39988 9.96122 3.48484 9.74095 3.63857 9.57093C3.7923 9.40091 4.00398 9.29311 4.233 9.26821L4.335 9.26316H12.665C12.8954 9.26304 13.1177 9.34721 13.2893 9.49951C13.461 9.65181 13.5698 9.86152 13.5949 10.0884L13.6 10.1895V11.7895H15.3V5.89474C15.3 5.6714 15.2104 5.4572 15.051 5.29928C14.8916 5.14135 14.6754 5.05263 14.45 5.05263ZM12.75 5.89474C12.9666 5.89498 13.175 5.97716 13.3326 6.1245C13.4901 6.27185 13.5849 6.47322 13.5976 6.68749C13.6103 6.90176 13.5399 7.11274 13.4009 7.27733C13.2618 7.44192 13.0646 7.5477 12.8495 7.57305L12.75 7.57895H11.05C10.8334 7.57871 10.625 7.49652 10.4674 7.34918C10.3099 7.20184 10.2151 7.00046 10.2024 6.78619C10.1897 6.57193 10.2601 6.36094 10.3991 6.19635C10.5382 6.03176 10.7354 5.92598 10.9506 5.90063L11.05 5.89474H12.75ZM11.9 1.68421H5.1V3.36842H11.9V1.68421Z" fill="white"/>
</svg>
