<svg width="15" height="15" viewBox="0 0 15 15" fill="none" xmlns="http://www.w3.org/2000/svg">
<path d="M3.68933 0.87699C4.26798 0.325942 5.0596 0.00723084 5.8586 0.00120479C6.78585 -0.000469107 7.71309 0.00120478 8.64001 0.000535219C8.97555 0.00287868 9.3141 -0.0141951 9.64595 0.0464001C10.4794 0.18299 11.2456 0.669761 11.7308 1.35974C12.1136 1.8964 12.3215 2.55357 12.3219 3.21242C12.3229 3.95228 12.3219 4.69215 12.3222 5.43235C12.8141 5.29576 13.3533 5.35133 13.8097 5.57898C14.2423 5.79324 14.597 6.15949 14.8006 6.59671C15.0531 7.12767 15.0654 7.76443 14.8397 8.30677C14.6911 8.67302 14.4356 8.99173 14.1181 9.22641C14.4603 9.93045 14.5544 10.7517 14.3736 11.514C14.2497 12.0302 14.0197 12.532 13.655 12.9237C13.3071 13.3067 12.8657 13.6017 12.3811 13.7824C12.3791 14.0195 12.3845 14.2568 12.3791 14.4938C12.3708 14.7647 12.1246 14.9997 11.8544 14.9984C11.5795 15.0084 11.3203 14.7727 11.3119 14.4965C11.3056 14.307 11.3112 14.1176 11.3099 13.9281C8.76994 13.9271 6.2303 13.9271 3.69033 13.9281C3.68732 14.1293 3.69803 14.3308 3.68497 14.5317C3.6555 14.829 3.3414 15.0556 3.04939 14.988C2.81934 14.9425 2.62913 14.7325 2.6211 14.4959C2.61574 14.2582 2.62076 14.0205 2.61909 13.7828C2.03776 13.5635 1.51771 13.1815 1.14634 12.6823C0.440105 11.6907 0.342658 10.3148 0.882465 9.22641C0.497032 8.94151 0.204023 8.5304 0.0781131 8.06673C-0.060857 7.57494 -0.0126361 7.03394 0.208711 6.57328C0.426375 6.11295 0.816161 5.73733 1.28397 5.53579C1.71896 5.34329 2.21926 5.30613 2.67803 5.43235C2.67803 4.81602 2.67803 4.20002 2.67803 3.58369C2.67903 3.31386 2.66932 3.04235 2.7085 2.77452C2.80561 2.05441 3.1589 1.37313 3.68933 0.87699ZM5.52473 1.10364C5.07769 1.17997 4.65743 1.40393 4.346 1.73369C3.96358 2.12405 3.74759 2.6684 3.74994 3.21409C3.74927 4.00585 3.74994 4.79794 3.7496 5.59003C3.74826 5.74671 3.76233 5.90606 3.71913 6.05872C3.982 6.34964 4.16986 6.7092 4.24387 7.0952C4.30983 7.41625 4.27501 7.74534 4.28773 8.07008C4.29678 8.34226 4.54826 8.57493 4.8195 8.57024C6.53838 8.57192 8.25759 8.57024 9.97647 8.57091C10.0679 8.57058 10.1596 8.57493 10.2507 8.56489C10.4955 8.5371 10.7031 8.31614 10.7122 8.06941C10.7252 7.73597 10.6891 7.39751 10.7614 7.06842C10.8384 6.69246 11.0243 6.34295 11.2811 6.05905C11.2627 5.98339 11.249 5.90639 11.2503 5.82839C11.251 4.95629 11.2506 4.08385 11.2503 3.21175C11.253 2.62756 10.9998 2.04973 10.5722 1.65234C10.1834 1.2794 9.64629 1.07049 9.10849 1.07217C8.09216 1.0715 7.07618 1.07217 6.05985 1.07183C5.88103 1.07049 5.70121 1.07116 5.52473 1.10364ZM2.01499 6.43635C1.8576 6.45544 1.7049 6.509 1.57095 6.5937C1.13529 6.85684 0.947764 7.44973 1.15505 7.91508C1.34592 8.39482 1.91419 8.6767 2.41147 8.53576C2.9553 8.40888 3.32332 7.80895 3.18736 7.26661C3.08321 6.74368 2.54341 6.36069 2.01499 6.43635ZM12.6403 6.45075C12.4448 6.49092 12.2616 6.58734 12.1176 6.72527C11.7472 7.06641 11.6783 7.67638 11.9646 8.09084C12.2338 8.51299 12.8165 8.68976 13.2742 8.48621C13.7528 8.29472 14.0354 7.72827 13.8944 7.23112C13.7685 6.69279 13.1798 6.32554 12.6403 6.45075ZM1.88305 9.6161C1.63391 10.0871 1.54852 10.6425 1.64764 11.1665C1.72901 11.5799 1.90381 11.99 2.21658 12.2816C2.50959 12.5615 2.87694 12.7875 3.27978 12.8558C6.10506 12.8551 8.93067 12.8588 11.756 12.8541C12.1521 12.767 12.5148 12.5478 12.8014 12.2639C13.0934 11.9853 13.2588 11.6 13.3432 11.2113C13.4564 10.6747 13.3734 10.1012 13.1179 9.6161C12.5014 9.71419 11.8581 9.48453 11.4043 9.06471C11.1036 9.42226 10.6462 9.64221 10.1774 9.64154C8.39221 9.64288 6.60703 9.64288 4.82151 9.6412C4.35471 9.64154 3.89694 9.42293 3.59791 9.06538C3.14182 9.48319 2.50055 9.71486 1.88305 9.6161Z" fill="#C1C1C1"/>
</svg>
