<svg width="14" height="14" viewBox="0 0 14 14" fill="none" xmlns="http://www.w3.org/2000/svg">
<path d="M6.4582 0.148247C6.75955 -0.0372719 7.17009 -0.0495233 7.48456 0.116306C7.79293 0.272947 7.99727 0.590605 7.99867 0.918764C8.00242 1.25611 7.99867 1.5939 7.99961 1.93124C9.5054 2.13076 10.932 2.80633 11.993 3.82319C13.0227 4.79673 13.7102 6.08048 13.9211 7.43469C14.0279 8.07131 13.9946 8.71801 13.9965 9.35989C13.9956 9.84775 13.5246 10.2765 13.0025 10.266C9.01753 10.2682 5.03209 10.266 1.04711 10.2669C0.674529 10.2827 0.302417 10.0901 0.125734 9.78255C0.0221615 9.61672 -0.00455173 9.4207 0.000603476 9.23168C0.0076333 8.67775 -0.0218922 8.12076 0.0582479 7.56945C0.230244 6.27957 0.831998 5.04394 1.75759 4.07303C2.84159 2.92097 4.37316 2.14652 5.99986 1.93256C6.0022 1.5939 5.99752 1.25567 6.00126 0.917451C6.0022 0.610295 6.1817 0.312764 6.4582 0.148247ZM6.11046 3.807C4.91914 4.00389 3.81733 4.62521 3.0717 5.5143C2.37997 6.32726 1.99895 7.36162 2.00036 8.39947C5.33343 8.40035 8.66651 8.39991 11.9996 8.39947C11.9958 7.88186 11.9073 7.36424 11.725 6.87507C11.3425 5.83283 10.5482 4.93018 9.53024 4.37406C8.51185 3.80963 7.27413 3.6101 6.11046 3.807Z" fill="#C1C1C1"/>
<path d="M2.89279 12.1392C3.20867 12.1055 3.54047 12.2166 3.75137 12.4406C3.9543 12.6472 4.04756 12.9421 3.99648 13.2182C3.94727 13.517 3.72934 13.7848 3.43549 13.9112C3.08963 14.0661 2.64909 14.0154 2.35759 13.7804C2.0614 13.5542 1.93158 13.1608 2.0375 12.8178C2.13919 12.4568 2.4949 12.175 2.89279 12.1392Z" fill="#C1C1C1"/>
<path d="M6.8774 12.1409C7.16 12.1072 7.45713 12.1886 7.67037 12.3667C7.91079 12.5623 8.03967 12.8699 8.00311 13.1656C7.97031 13.4767 7.7566 13.7642 7.45573 13.9016C7.11408 14.0639 6.67354 14.0228 6.37594 13.7957C6.07975 13.58 5.93775 13.2011 6.02492 12.8602C6.11022 12.4844 6.46921 12.1834 6.8774 12.1409Z" fill="#C1C1C1"/>
<path d="M10.8171 12.1492C11.1466 12.0906 11.5056 12.1943 11.7343 12.4253C11.9714 12.6546 12.0647 13.0011 11.9742 13.3083C11.8983 13.5774 11.6856 13.8093 11.4123 13.9204C11.0735 14.0622 10.6517 14.0123 10.3663 13.7887C10.0884 13.5813 9.94919 13.2282 10.0153 12.9018C10.0813 12.5277 10.4174 12.214 10.8171 12.1492Z" fill="#C1C1C1"/>
</svg>
