<svg width="14" height="16" viewBox="0 0 14 16" fill="none" xmlns="http://www.w3.org/2000/svg">
<path d="M5.66602 2.40115L7.06717 3.10173L8.46833 2.40115" stroke="#C1C1C1" stroke-width="1.3" stroke-linecap="round" stroke-linejoin="round"/>
<path d="M7.06689 1V5.55375L9.16863 6.75875M11.2199 3.99006L11.3138 5.55375L12.6211 6.41686" stroke="#C1C1C1" stroke-width="1.3" stroke-linecap="round" stroke-linejoin="round"/>
<path d="M13.134 4.5029L9.19043 6.77978L9.19744 9.20237M12.6212 9.5947L11.3139 10.4578L11.22 12.0215" stroke="#C1C1C1" stroke-width="1.3" stroke-linecap="round" stroke-linejoin="round"/>
<path d="M13.1342 11.5087L9.19062 9.23178L7.09589 10.4494M8.46833 13.6104L7.06717 12.9098L5.66602 13.6104" stroke="#C1C1C1" stroke-width="1.3" stroke-linecap="round" stroke-linejoin="round"/>
<path d="M7.06687 15.0116V10.4578L4.96514 9.25281M2.91385 12.0215L2.81997 10.4578L1.5127 9.59469" stroke="#C1C1C1" stroke-width="1.3" stroke-linecap="round" stroke-linejoin="round"/>
<path d="M1 11.5086L4.94355 9.23177L4.93654 6.80917M1.51282 6.41685L2.8201 5.55374L2.91398 3.99005" stroke="#C1C1C1" stroke-width="1.3" stroke-linecap="round" stroke-linejoin="round"/>
<path d="M1 4.5029L4.94355 6.77978L7.03828 5.56217" stroke="#C1C1C1" stroke-width="1.3" stroke-linecap="round" stroke-linejoin="round"/>
</svg>
