<svg width="17" height="17" viewBox="0 0 17 17" fill="none" xmlns="http://www.w3.org/2000/svg">
<path d="M2.11684 0.73766C2.38219 0.68725 2.65272 0.700581 2.92126 0.698915C5.617 0.698915 8.31274 0.699332 11.0089 0.698915C11.3535 0.694332 11.6986 0.761406 12.0181 0.896804C12.8771 1.25967 13.509 2.14455 13.5875 3.11067C13.6126 3.49103 13.5939 3.87306 13.6002 4.25384C14.1118 4.27009 14.6361 4.2001 15.1354 4.35174C15.8199 4.54672 16.4107 5.06081 16.7267 5.72364C16.9123 6.09984 17.0016 6.52436 16.9996 6.94722C16.9992 9.32106 17.0012 11.6953 16.9988 14.0696C16.9944 14.8686 16.6163 15.6489 16.0119 16.1355C15.5677 16.5013 15.0035 16.7 14.4385 16.6967C10.7196 16.6967 7.00073 16.6967 3.28143 16.6967C2.77583 16.6871 2.25429 16.745 1.76702 16.568C0.937101 16.2893 0.265357 15.5427 0.0701286 14.6516C0.0195286 14.4345 -0.000392575 14.2108 5.84948e-06 13.9879C0.000404274 10.4467 5.78263e-06 6.90514 0.000404207 3.36396C-0.00158792 2.69197 0.250217 2.02165 0.696851 1.53713C1.06978 1.11802 1.57697 0.833063 2.11684 0.73766ZM2.30011 2.51575C2.03755 2.59824 1.82121 2.82279 1.73993 3.09692C1.64948 3.38938 1.71762 3.72891 1.91643 3.95638C2.07739 4.14844 2.32043 4.25759 2.56427 4.25384C5.67597 4.25426 8.78766 4.25426 11.8998 4.25384C11.8982 3.94472 11.9033 3.63518 11.8978 3.32605C11.889 2.98277 11.6671 2.66031 11.3607 2.53824C11.187 2.46201 10.9953 2.477 10.8113 2.47617C8.14142 2.47659 5.47118 2.47659 2.80133 2.47617C2.63399 2.47784 2.46227 2.46284 2.30011 2.51575ZM1.70088 14.035C1.69052 14.5133 2.10568 14.9374 2.56267 14.919C6.52063 14.9194 10.4786 14.9194 14.4369 14.919C14.868 14.9349 15.2688 14.5583 15.2951 14.1075C15.3055 13.7854 15.2975 13.4634 15.2991 13.1414C14.8019 13.1259 14.2935 13.1918 13.8066 13.0555C13.0122 12.841 12.3344 12.2027 12.0559 11.3945C11.836 10.7729 11.8496 10.0651 12.0942 9.45354C12.387 8.70906 13.0193 8.11997 13.7624 7.9075C14.262 7.75544 14.7871 7.82501 15.2995 7.80877C15.2967 7.48506 15.3063 7.16094 15.2951 6.83723C15.2657 6.38938 14.8672 6.01568 14.4381 6.03193C10.4933 6.03109 6.54812 6.03193 2.60331 6.03151C2.29653 6.03609 1.99133 5.98152 1.70048 5.88153C1.70048 8.59907 1.69929 11.317 1.70088 14.035ZM13.7313 10.001C13.57 10.2626 13.5568 10.6146 13.6979 10.8888C13.8369 11.1708 14.1293 11.3612 14.4333 11.3629C14.7222 11.3662 15.0111 11.3633 15.2999 11.3637C15.2995 10.7713 15.2999 10.1789 15.2995 9.58685C15.0111 9.58727 14.7226 9.58477 14.4341 9.58769C14.1525 9.58935 13.8799 9.75183 13.7313 10.001Z" fill="#C1C1C1"/>
</svg>
