<svg width="14" height="11" viewBox="0 0 14 11" fill="none" xmlns="http://www.w3.org/2000/svg">
<path d="M3.82703 0.620733C5.36812 0.0109679 7.08121 -0.154735 8.7109 0.146593C10.2547 0.424679 11.7182 1.12577 12.9046 2.15144C13.1286 2.31741 13.3137 2.52632 13.5119 2.72046C13.6516 2.86347 13.8108 2.99636 13.8999 3.17929C13.9642 3.3048 13.9915 3.44507 14 3.5848V3.6105C13.9904 3.90116 13.8466 4.18663 13.6071 4.3548C13.2762 4.60062 12.7805 4.58585 12.4682 4.31542C12.2437 4.11882 12.0504 3.88995 11.827 3.69226C11.136 3.06116 10.3171 2.57062 9.43359 2.2619C8.29965 1.86132 7.0618 1.76151 5.87781 1.97069C4.7734 2.16237 3.71711 2.62503 2.82926 3.30944C2.47707 3.57304 2.16508 3.88448 1.85691 4.19702C1.69777 4.34823 1.55641 4.52706 1.3568 4.62741C1.08883 4.76577 0.753594 4.75839 0.490547 4.61155C0.202617 4.45706 0.0144922 4.14534 0 3.81995V3.77812C0.0065625 3.5312 0.111016 3.29194 0.287109 3.11913C0.534844 2.87441 0.771641 2.61819 1.03359 2.38851C1.84187 1.62972 2.79617 1.02788 3.82703 0.620733Z" fill="#C1C1C1"/>
<path d="M6.55095 3.42813C7.75654 3.29332 9.00696 3.57496 10.0269 4.23449C10.1609 4.32883 10.3039 4.41086 10.4288 4.51723C10.6213 4.6802 10.8248 4.83141 10.9981 5.0157C11.1299 5.1557 11.2708 5.2875 11.3954 5.43406C11.6167 5.69055 11.6875 6.06461 11.583 6.38617C11.4993 6.65715 11.2945 6.88684 11.0367 7.00496C10.8108 7.10805 10.5464 7.12582 10.3096 7.05008C10.1393 7.00113 9.99325 6.89477 9.86665 6.77418C9.55411 6.47477 9.2547 6.15266 8.87845 5.93145C8.25091 5.54371 7.48911 5.38266 6.75767 5.47535C6.12685 5.55028 5.52036 5.81633 5.03665 6.22785C4.75802 6.46985 4.51138 6.7452 4.24232 6.99703C4.0397 7.18953 3.75478 7.28879 3.47669 7.26801C3.20982 7.25078 2.95251 7.12254 2.77751 6.92047C2.58337 6.70309 2.49314 6.39902 2.53169 6.11055C2.55985 5.87402 2.68235 5.65801 2.8497 5.49176C3.23388 5.10977 3.60521 4.70781 4.05146 4.39609C4.78181 3.86316 5.65462 3.53613 6.55095 3.42813Z" fill="#C1C1C1"/>
<path d="M6.79624 7.28195C7.16893 7.22726 7.56049 7.3041 7.88178 7.50207C8.23397 7.71508 8.50002 8.06562 8.60858 8.46293C8.71194 8.83617 8.67831 9.24633 8.51123 9.59633C8.316 10.015 7.93401 10.3417 7.4894 10.4683C7.1528 10.5662 6.78475 10.5525 6.45663 10.4287C6.07272 10.2854 5.74788 9.9909 5.56768 9.62285C5.38995 9.26738 5.3503 8.84547 5.45776 8.46293C5.61963 7.85097 6.16815 7.3648 6.79624 7.28195Z" fill="#C1C1C1"/>
</svg>
